/* XPM */
static char *dominos[] = {
/* columns rows colors chars-per-pixel */
"32 32 32 1 ",
"  c #1C1714",
". c #221D1A",
"X c #25211E",
"o c #322E2C",
"O c #403C3A",
"+ c #44403E",
"@ c #514E4B",
"# c #615E5B",
"$ c #706D6B",
"% c #73706F",
"& c #C6C5C5",
"* c #817F7C",
"= c #83807F",
"- c #949290",
"; c #A2A19E",
": c #AEACAB",
"> c #ECECEB",
", c #C1C0BF",
"< c #D5D5D4",
"1 c #E0E0DF",
"2 c #FAFAFA",
"3 c #F7F7F7",
"4 c #E6E6E6",
"5 c #F3F3F3",
"6 c #F8F8F8",
"7 c #CCCCCC",
"8 c #D5D5D5",
"9 c #F5F5F5",
"0 c #DEDEDE",
"q c #C0C0C0",
"w c #DEDEDE",
"e c None",
/* pixels */
"eeeeeeeeeeeew@w8#woeeeeeeeeeeeee",
"eeeeeeeeee66<311><>:6weeeeeeeeee",
"eeeeeeee61221111<<<<221weeeeeeee",
"eeeeeeq411111111<<<<22226eeeeeee",
"eeeee 6:oooooooo@+O:11221;eeeeee",
"eeeeq126.       XXO%6-2212:eeeee",
"eeee;22=.;5X  .;;ooooO111126eeee",
"eeeX122&.==.   $=oo$ O++<122qeee",
"eee1222&          o$ O#.3222-eee",
"eew2222&          oo O$X$,22< ee",
"ee32222&          X4 o .O-221;ee",
"ee22222$          oO O .o-2212ee",
"eq22222&.#%.   #$ o@ o+.o42211 e",
"e622222$X55X  .;:oo6 O6X+-2211oe",
"e622222& .X    .X XX Oooo42222we",
"e622222& . . . . .X#@O+Oo422224e",
"e622222&=;;4------ooXOO.X-22226e",
"e622222$X.X.XXXXXXo+ O-Xo-2222@e",
"e622222&.@@.   +# X- o..X-22,,Xe",
"eq22222$X::X  .;5ooO O .@-22,6 e",
"ee22222& Oo.   oO X& OXX0;11,;ee",
"ee;2222& Xo    Xo o& O6.>111,*ee",
"eeX-222$X::X  .;>ooo OX 3211,eee",
"eee%222$.@@.   @@.X- o;;12114 ee",
"eee8222& oo    oo o@ O222222qeee",
"eeee322&X-6.  .=;oXX @<1122,eeee",
"eeeee<2&.$$X   %&.X5<222224qeeee",
"eeeeeq2&   .      o,222221qeeeee",
"eeeeeew6&;6&%$$%#%*,<<12:qeeeeee",
"eeeeeeeq%;22222222222226eeeeeeee",
"eeeeeeeeeX;2222222222:qeeeeeeeee",
"eeeeeeeeeeeq66<2224wweeeeeeeeeee"
};
